<svg width="600" height="600" viewBox="0 0 600 600" fill="none" xmlns="http://www.w3.org/2000/svg">
<path d="M219.233 64.9721C266.395 27.0333 333.605 27.0333 380.767 64.9721V64.9721C396.139 77.3372 414.143 86.0079 433.395 90.316V90.316C492.461 103.534 534.367 156.082 534.11 216.609V216.609C534.026 236.336 538.473 255.819 547.108 273.556V273.556C573.601 327.978 558.645 393.504 511.163 431.041V431.041C495.687 443.275 483.228 458.899 474.744 476.709V476.709C448.713 531.354 388.158 560.515 329.206 546.797V546.797C309.992 542.325 290.008 542.325 270.794 546.797V546.797C211.842 560.515 151.287 531.354 125.256 476.709V476.709C116.772 458.899 104.313 443.275 88.8372 431.041V431.041C41.3551 393.504 26.3993 327.978 52.8923 273.556V273.556C61.527 255.819 65.9738 236.336 65.8901 216.609V216.609C65.6335 156.082 107.539 103.534 166.606 90.316V90.316C185.857 86.0079 203.862 77.3372 219.233 64.9721V64.9721Z" fill="#961A1A"/>
<path d="M178 163.718H217.148C225.709 163.718 232.648 170.658 232.648 179.218V218.367C232.648 226.927 225.709 233.867 217.148 233.867H178C169.44 233.867 162.5 226.927 162.5 218.367V179.218C162.5 170.792 169.224 163.936 177.6 163.723L178 163.718Z" stroke="white" stroke-width="25"/>
<path d="M382.85 163.718H421.999C430.559 163.718 437.499 170.658 437.499 179.218V218.367C437.499 226.927 430.559 233.867 421.999 233.867H382.85C374.29 233.867 367.35 226.927 367.35 218.367V179.218C367.35 170.792 374.075 163.936 382.45 163.723L382.85 163.718Z" stroke="white" stroke-width="25"/>
<path d="M178 366.5H217.148C225.709 366.5 232.648 373.44 232.648 382V421.148C232.648 429.709 225.709 436.648 217.148 436.648H178C169.44 436.648 162.5 429.709 162.5 421.148V382C162.5 373.573 169.224 366.717 177.6 366.505L178 366.5Z" stroke="white" stroke-width="25"/>
<path d="M299 225V283C299 294.046 290.046 303 279 303H224" stroke="white" stroke-width="25" stroke-linecap="round"/>
<path d="M365.807 443V379.774C365.807 368.728 374.761 359.774 385.807 359.774H443.226" stroke="white" stroke-width="25" stroke-linecap="round"/>
<rect x="345" y="287" width="45" height="30" rx="15" fill="white"/>
<rect x="310" y="404" width="45" height="30" rx="15" transform="rotate(90 310 404)" fill="white"/>
<rect x="415" y="288" width="35" height="30" rx="15" fill="white"/>
<rect x="310" y="350" width="35" height="30" rx="15" transform="rotate(90 310 350)" fill="white"/>
<rect x="150" y="288" width="45" height="30" rx="15" fill="white"/>
<rect x="314" y="151" width="45" height="30" rx="15" transform="rotate(90 314 151)" fill="white"/>
</svg>
