<?xml version="1.0" encoding="UTF-8" standalone="no"?>
<!DOCTYPE svg PUBLIC "-//W3C//DTD SVG 1.1//EN" "http://www.w3.org/Graphics/SVG/1.1/DTD/svg11.dtd">
<svg width="100%" height="100%" viewBox="0 0 1024 1024" version="1.1" xmlns="http://www.w3.org/2000/svg" xmlns:xlink="http://www.w3.org/1999/xlink" xml:space="preserve" xmlns:serif="http://www.serif.com/" style="fill-rule:evenodd;clip-rule:evenodd;stroke-linejoin:round;stroke-miterlimit:2;">
    <rect x="0" y="0" width="1024" height="1024" style="fill:white;"/>
    <g transform="matrix(1.36681,0,0,1.36681,-180.918,-176.996)">
        <path d="M532.5,355.5C527.489,355.334 522.489,355.501 517.5,356C522.833,356.333 528.167,356.667 533.5,357C534.416,357.374 535.25,357.874 536,358.5C536.5,383.831 536.667,409.164 536.5,434.5C527.983,434.174 519.65,434.507 511.5,435.5C508.023,436.323 504.356,436.823 500.5,437C498.65,437.69 497.316,438.856 496.5,440.5C495.818,447.589 495.485,455.423 495.5,464C495.667,472.167 495.833,480.333 496,488.5C496.383,489.056 496.883,489.389 497.5,489.5C499.14,490.32 500.807,491.153 502.5,492C512.675,492.17 522.675,492.67 532.5,493.5C531.448,493.351 530.448,493.517 529.5,494C531.764,494.236 533.931,494.736 536,495.5C536.667,509.167 536.667,522.833 536,536.5C524.91,537.322 513.743,537.822 502.5,538C501.584,538.278 500.918,538.778 500.5,539.5C499.542,540.962 498.376,542.295 497,543.5C496.5,556.162 496.333,568.829 496.5,581.5C496.968,596.93 496.468,612.263 495,627.5C493.786,629.049 492.286,630.215 490.5,631C480.167,631.333 469.833,631.667 459.5,632C456.417,632.786 454.251,634.619 453,637.5C452.667,656.167 452.333,674.833 452,693.5C451.681,696.973 450.181,699.806 447.5,702C436.572,703.265 425.572,703.932 414.5,704C401.366,713.073 387.699,721.407 373.5,729C350.725,736.825 327.725,737.492 304.5,731C292.721,726.61 281.054,721.943 269.5,717C260.491,715.036 251.491,715.036 242.5,717C237.426,718.748 233.592,721.914 231,726.5C230.333,732.5 230.333,738.5 231,744.5C235.047,759.557 234.047,774.224 228,788.5C220.962,799.184 211.129,803.018 198.5,800C181.789,792.768 174.122,779.935 175.5,761.5C175.667,757.833 175.833,754.167 176,750.5C180.462,730.526 184.795,710.526 189,690.5C191.075,679.32 189.075,668.987 183,659.5C163.428,640.925 149.095,618.925 140,593.5C135.56,576.43 133.893,559.096 135,541.5C137.604,523.212 139.771,504.879 141.5,486.5C139.458,470.117 136.958,453.784 134,437.5C127.121,389.46 141.954,349.627 178.5,318C191.233,308.273 203.066,297.439 214,285.5C222.064,273.096 229.731,260.43 237,247.5C261.632,211.604 295.798,191.437 339.5,187C352.529,186.231 365.529,186.564 378.5,188C398.068,192.475 417.734,196.475 437.5,200C450.834,200.341 464.167,200.174 477.5,199.5C490.298,199.28 502.965,200.447 515.5,203C521.164,204.347 525.331,207.513 528,212.5C528.939,224.904 528.606,237.238 527,249.5C517.911,250.319 508.744,250.819 499.5,251C496.333,252.167 494.167,254.333 493,257.5C492.333,286.5 492.333,315.5 493,344.5C492.919,348.846 494.753,352.013 498.5,354C510.007,354.169 521.341,354.669 532.5,355.5Z" style="fill:rgb(145,35,42);"/>
    </g>
    <g transform="matrix(1.36681,0,0,1.36681,-180.918,-176.996)">
        <path d="M606.5,198.5C618.838,198.333 631.171,198.5 643.5,199C644.766,199.309 645.933,199.809 647,200.5C648.115,207.926 648.615,215.426 648.5,223C648.491,229.744 648.158,236.411 647.5,243C632.615,244.962 617.781,244.795 603,242.5C602.333,229.167 602.333,215.833 603,202.5C603.69,200.65 604.856,199.316 606.5,198.5Z" style="fill:rgb(3,164,169);"/>
    </g>
    <g transform="matrix(1.36681,0,0,1.36681,-180.918,-176.996)">
        <path d="M685.5,200.5C748.665,199.335 811.999,199.168 875.5,200C877.286,200.785 878.786,201.951 880,203.5C881.659,265.418 881.992,327.418 881,389.5C879.917,393.418 877.417,395.752 873.5,396.5C811.335,395.667 749.001,395.167 686.5,395C686,394.5 685.5,394 685,393.5C684.333,329.833 684.333,266.167 685,202.5C686.38,201.744 686.547,201.078 685.5,200.5Z" style="fill:rgb(0,165,170);"/>
    </g>
    <g transform="matrix(1.36681,0,0,1.36681,-180.918,-176.996)">
        <path d="M543.5,275.5C555.505,275.333 567.505,275.5 579.5,276C580.333,276.833 581.167,277.667 582,278.5C583.573,289.441 583.906,300.441 583,311.5C582.55,313.519 581.717,315.352 580.5,317C569.573,318.597 558.573,318.931 547.5,318C544.993,317.907 542.826,317.074 541,315.5C539.398,303.905 539.065,292.238 540,280.5C540.997,278.677 542.164,277.01 543.5,275.5Z" style="fill:rgb(5,164,169);"/>
    </g>
    <g transform="matrix(1.36681,0,0,1.36681,-180.918,-176.996)">
        <path d="M723.5,233.5C762.168,233.333 800.835,233.5 839.5,234C841.848,234.346 843.681,235.513 845,237.5C846.654,276.416 846.988,315.416 846,354.5C845.727,356.329 844.893,357.829 843.5,359C803.918,360.655 764.251,360.988 724.5,360C722.714,359.215 721.214,358.049 720,356.5C718.346,317.584 718.012,278.584 719,239.5C720.332,237.34 721.832,235.34 723.5,233.5Z" style="fill:white;"/>
    </g>
    <g transform="matrix(1.36681,0,0,1.36681,-180.918,-176.996)">
        <path d="M754.5,266.5C772.836,266.333 791.17,266.5 809.5,267C811.329,267.273 812.829,268.107 814,269.5C815.64,288.076 815.974,306.743 815,325.5C814.215,327.286 813.049,328.786 811.5,330C793.257,331.64 774.924,331.973 756.5,331C753.027,330.193 750.86,328.027 750,324.5C749.333,307.167 749.333,289.833 750,272.5C750.804,269.854 752.304,267.854 754.5,266.5Z" style="fill:rgb(9,165,170);"/>
    </g>
    <g transform="matrix(1.36681,0,0,1.36681,-180.918,-176.996)">
        <path d="M496.5,581.5C496.333,568.829 496.5,556.162 497,543.5C498.376,542.295 499.542,540.962 500.5,539.5C512.71,538.884 524.877,538.217 537,537.5C537.667,523.167 537.667,508.833 537,494.5C535.644,493.62 534.144,493.286 532.5,493.5C522.675,492.67 512.675,492.17 502.5,492C500.807,491.153 499.14,490.32 497.5,489.5C496.529,473.214 496.196,456.881 496.5,440.5C497.316,438.856 498.65,437.69 500.5,437C504.356,436.823 508.023,436.323 511.5,435.5L537.5,435.5C548.838,435.667 560.172,435.5 571.5,435C572.931,434.535 574.097,433.701 575,432.5C575.333,410.833 575.667,389.167 576,367.5C576.935,364.898 578.768,363.398 581.5,363C590.167,362.667 598.833,362.333 607.5,362C609.259,360.992 610.426,359.492 611,357.5C611.175,341.259 611.675,325.093 612.5,309C624.546,308.188 636.546,308.354 648.5,309.5C649.667,339.828 649.833,370.161 649,400.5C648.5,401.667 647.667,402.5 646.5,403C638.167,403.333 629.833,403.667 621.5,404C619,405.167 617.167,407 616,409.5C615.667,436.167 615.333,462.833 615,489.5C613.829,490.893 612.329,491.727 610.5,492C601.167,492.333 591.833,492.667 582.5,493C580.43,493.948 578.93,495.448 578,497.5C577.983,524.253 577.316,550.92 576,577.5C574.681,579.487 572.848,580.654 570.5,581C545.836,581.5 521.169,581.667 496.5,581.5Z" style="fill:rgb(4,165,170);"/>
    </g>
    <g transform="matrix(1.36681,0,0,1.36681,-180.918,-176.996)">
        <path d="M685.5,200.5C686.547,201.078 686.38,201.744 685,202.5C684.333,266.167 684.333,329.833 685,393.5C685.5,394 686,394.5 686.5,395C749.001,395.167 811.335,395.667 873.5,396.5C811.541,397.659 749.541,397.826 687.5,397C686.069,396.535 684.903,395.701 684,394.5C682.341,330.582 682.007,266.582 683,202.5C683.708,201.619 684.542,200.953 685.5,200.5Z" style="fill:rgb(24,159,165);"/>
    </g>
    <g transform="matrix(1.36681,0,0,1.36681,-180.918,-176.996)">
        <path d="M532.5,355.5C535.148,355.738 536.982,357.072 538,359.5C538.708,384.843 538.541,410.176 537.5,435.5L511.5,435.5C519.65,434.507 527.983,434.174 536.5,434.5C536.667,409.164 536.5,383.831 536,358.5C535.25,357.874 534.416,357.374 533.5,357C528.167,356.667 522.833,356.333 517.5,356C522.489,355.501 527.489,355.334 532.5,355.5Z" style="fill:rgb(140,24,23);"/>
    </g>
    <g transform="matrix(1.36681,0,0,1.36681,-180.918,-176.996)">
        <path d="M788.5,429.5C820.109,427.878 843.276,440.878 858,468.5C869.89,501.113 862.39,528.28 835.5,550C819.603,560.18 802.27,563.847 783.5,561C776.458,559.43 769.625,557.264 763,554.5C759.008,555.413 755.508,557.246 752.5,560C724.667,587.833 696.833,615.667 669,643.5C668.333,644.5 668.333,645.5 669,646.5C677.387,654.887 685.721,663.221 694,671.5C694.667,673.167 694.667,674.833 694,676.5C683.863,687.637 673.363,698.471 662.5,709C659.833,709.667 657.167,709.667 654.5,709C631,685.5 607.5,662 584,638.5C582.033,635.002 582.367,631.668 585,628.5C594.167,619.333 603.333,610.167 612.5,601C616.5,597.667 620.5,597.667 624.5,601C630.635,608.136 637.135,614.969 644,621.5C674.693,589.807 705.693,558.474 737,527.5C723.225,491.501 731.725,462.001 762.5,439C770.757,434.356 779.424,431.19 788.5,429.5Z" style="fill:rgb(3,165,169);"/>
    </g>
    <g transform="matrix(1.36681,0,0,1.36681,-180.918,-176.996)">
        <path d="M654.5,436.5C668.732,436.996 682.898,437.663 697,438.5C697.667,453.833 697.667,469.167 697,484.5C696.5,485 696,485.5 695.5,486C680.788,486.816 666.122,486.65 651.5,485.5C650.749,484.624 650.249,483.624 650,482.5C649.333,468.833 649.333,455.167 650,441.5C651.025,439.313 652.525,437.646 654.5,436.5Z" style="fill:rgb(1,163,168);"/>
    </g>
    <g transform="matrix(1.36681,0,0,1.36681,-180.918,-176.996)">
        <path d="M496.5,440.5C496.196,456.881 496.529,473.214 497.5,489.5C496.883,489.389 496.383,489.056 496,488.5C495.833,480.333 495.667,472.167 495.5,464C495.485,455.423 495.818,447.589 496.5,440.5Z" style="fill:rgb(171,4,8);"/>
    </g>
    <g transform="matrix(1.36681,0,0,1.36681,-180.918,-176.996)">
        <path d="M789.5,464.5C809.613,462.127 822.779,470.461 829,489.5C830.632,509.517 821.799,522.017 802.5,527C777.176,527.343 765.01,514.843 766,489.5C769.607,477.063 777.441,468.73 789.5,464.5Z" style="fill:white;"/>
    </g>
    <g transform="matrix(1.36681,0,0,1.36681,-180.918,-176.996)">
        <path d="M621.5,522.5C632.172,522.333 642.839,522.5 653.5,523C655.676,523.163 657.509,523.996 659,525.5C659.667,538.167 659.667,550.833 659,563.5C658.5,564 658,564.5 657.5,565C645.205,566.51 632.872,566.843 620.5,566C618.899,565.727 617.399,565.227 616,564.5C615.333,551.833 615.333,539.167 616,526.5C617.456,524.535 619.29,523.201 621.5,522.5Z" style="fill:rgb(3,163,169);"/>
    </g>
    <g transform="matrix(1.36681,0,0,1.36681,-180.918,-176.996)">
        <path d="M532.5,493.5C534.144,493.286 535.644,493.62 537,494.5C537.667,508.833 537.667,523.167 537,537.5C524.877,538.217 512.71,538.884 500.5,539.5C500.918,538.778 501.584,538.278 502.5,538C513.743,537.822 524.91,537.322 536,536.5C536.667,522.833 536.667,509.167 536,495.5C533.931,494.736 531.764,494.236 529.5,494C530.448,493.517 531.448,493.351 532.5,493.5Z" style="fill:rgb(180,3,8);"/>
    </g>
    <g transform="matrix(1.36681,0,0,1.36681,-180.918,-176.996)">
        <path d="M752.5,600.5C792.835,600.333 833.168,600.5 873.5,601C875.624,602.122 877.457,603.622 879,605.5C880.659,666.084 880.992,726.751 880,787.5C877.636,794.944 872.47,798.277 864.5,797.5C802.178,796.681 739.845,796.181 677.5,796C676.667,795.167 675.833,794.333 675,793.5C673.365,777.926 673.032,762.259 674,746.5C674.948,744.43 676.448,742.93 678.5,742C688.6,741.051 698.6,741.385 708.5,743C709.126,743.75 709.626,744.584 710,745.5C710.333,749.5 710.667,753.5 711,757.5C711.5,759.333 712.667,760.5 714.5,761C735.5,761.667 756.5,761.667 777.5,761C778.667,760.5 779.5,759.667 780,758.5C780.952,747.735 780.619,737.068 779,726.5C778.167,725.667 777.333,724.833 776.5,724C767.773,723.877 759.106,723.21 750.5,722C748.951,720.786 747.785,719.286 747,717.5C746.333,680.5 746.333,643.5 747,606.5C748.36,603.977 750.193,601.977 752.5,600.5Z" style="fill:rgb(5,165,170);"/>
    </g>
    <g transform="matrix(1.36681,0,0,1.36681,-180.918,-176.996)">
        <path d="M786.5,636.5C804.503,636.333 822.503,636.5 840.5,637C841.308,637.308 841.975,637.808 842.5,638.5C843.656,662.124 843.823,685.791 843,709.5C842.692,710.308 842.192,710.975 841.5,711.5C833.549,712.635 825.549,712.802 817.5,712C816.874,711.25 816.374,710.416 816,709.5C815.949,699.734 815.282,690.067 814,680.5C813.25,679.874 812.416,679.374 811.5,679C802.589,678.819 793.755,678.319 785,677.5C783.373,664.929 783.04,652.262 784,639.5C785.045,638.627 785.878,637.627 786.5,636.5Z" style="fill:white;"/>
    </g>
    <g transform="matrix(1.36681,0,0,1.36681,-180.918,-176.996)">
        <path d="M505.5,655.5C519.837,655.333 534.171,655.5 548.5,656C549,656.5 549.5,657 550,657.5C550.033,672.26 550.699,686.926 552,701.5C552.903,702.701 554.069,703.535 555.5,704C568.167,704.333 580.833,704.667 593.5,705C594,705.5 594.5,706 595,706.5C595.054,720.235 595.72,733.902 597,747.5C598.214,749.049 599.714,750.215 601.5,751C612.156,750.684 622.822,750.684 633.5,751C635.848,751.346 637.681,752.513 639,754.5C639.667,766.833 639.667,779.167 639,791.5C638.535,792.931 637.701,794.097 636.5,795C609.92,796.648 583.254,796.982 556.5,796C554.714,795.215 553.214,794.049 552,792.5C550.692,764.895 550.025,737.228 550,709.5C549.097,708.299 547.931,707.465 546.5,707C533.167,706.667 519.833,706.333 506.5,706C505.584,705.626 504.75,705.126 504,704.5C502.366,689.259 502.032,673.926 503,658.5C504.045,657.627 504.878,656.627 505.5,655.5Z" style="fill:rgb(5,165,169);"/>
    </g>
    <g transform="matrix(1.36681,0,0,1.36681,-180.918,-176.996)">
        <path d="M818.5,740.5C826.174,740.334 833.841,740.5 841.5,741C842.126,741.75 842.626,742.584 843,743.5C843.499,748.823 843.666,754.156 843.5,759.5C834.188,760.277 824.854,760.61 815.5,760.5C815.334,754.824 815.501,749.157 816,743.5C817.045,742.627 817.878,741.627 818.5,740.5Z" style="fill:white;"/>
    </g>
    <g transform="matrix(1.36681,0,0,1.36681,-180.918,-176.996)">
        <path d="M275.5,756.5C287.893,755.442 296.06,760.776 300,772.5C301.541,784.919 296.374,793.086 284.5,797C272.092,798.546 263.925,793.379 260,781.5C258.576,769.005 263.743,760.672 275.5,756.5Z" style="fill:rgb(144,34,40);"/>
    </g>
</svg>
