<?xml version="1.0" encoding="UTF-8" standalone="no"?>
<!DOCTYPE svg PUBLIC "-//W3C//DTD SVG 1.1//EN" "http://www.w3.org/Graphics/SVG/1.1/DTD/svg11.dtd">
<svg width="100%" height="100%" viewBox="0 0 1024 1024" version="1.1" xmlns="http://www.w3.org/2000/svg" xmlns:xlink="http://www.w3.org/1999/xlink" xml:space="preserve" xmlns:serif="http://www.serif.com/" style="fill-rule:evenodd;clip-rule:evenodd;stroke-linejoin:round;stroke-miterlimit:2;">
    <g transform="matrix(1.50561,0,0,1.50561,-245.629,-270.839)">
        <g id="Seal">
            <path d="M383.5,190.5C401.204,189.128 418.538,190.961 435.5,196C467.671,210.188 501.004,213.855 535.5,207C549.423,203.47 563.09,199.137 576.5,194C630.634,182.331 672.8,199.498 703,245.5C709.288,259.706 715.955,273.706 723,287.5C740.399,316.236 764.566,337.069 795.5,350C829.728,374.629 845.561,408.129 843,450.5C842.182,457.926 840.848,465.259 839,472.5C833.551,486.732 827.551,500.732 821,514.5C813.412,535.205 810.745,556.538 813,578.5C814.743,590.548 816.743,602.548 819,614.5C821.685,669.314 798.185,708.147 748.5,731C723.28,736.282 699.946,745.948 678.5,760C659.457,774.376 643.957,791.876 632,812.5C608.508,839.114 579.008,850.614 543.5,847C530.745,843.44 517.745,841.606 504.5,841.5C500.167,841.667 495.833,841.833 491.5,842C471.429,847.49 451.096,848.824 430.5,846C407.241,840.629 388.074,828.795 373,810.5C356.177,781.01 332.344,759.177 301.5,745C286.273,739.693 270.94,734.693 255.5,730C205.613,705.733 183.113,665.899 188,610.5C196.536,580.454 196.536,550.454 188,520.5C181.069,504.969 174.403,489.303 168,473.5C155.903,428.926 166.403,390.759 199.5,359C204.167,355.667 208.833,352.333 213.5,349C244.205,335.565 268.038,314.399 285,285.5C291.955,269.96 299.288,254.627 307,239.5C325.79,212.688 351.29,196.355 383.5,190.5Z" style="fill:rgb(132,38,44);"/>
        </g>
    </g>
    <g id="QR-Code" serif:id="QR Code" transform="matrix(1.65351,0,0,1.57221,-341.213,-305.074)">
        <g>
            <path d="M511.5,351.5C529.184,351.534 535.017,359.867 529,376.5C519.701,385.98 510.701,385.647 502,375.5C497.673,364.492 500.84,356.492 511.5,351.5Z" style="fill:white;"/>
        </g>
        <g>
            <path d="M378.5,350.5C400.212,350.056 421.878,350.556 443.5,352C455.357,357.186 462.857,366.02 466,378.5C466.667,398.167 466.667,417.833 466,437.5C462.952,453.548 453.452,463.381 437.5,467C417.5,467.667 397.5,467.667 377.5,467C361.669,462.836 352.502,452.669 350,436.5C349.333,417.167 349.333,397.833 350,378.5C354.154,363.511 363.654,354.178 378.5,350.5ZM380.5,381.5L436.5,381.5C436.667,399.836 436.5,418.17 436,436.5C426.742,437.16 417.408,437.494 408,437.5C398.592,437.494 389.258,437.16 380,436.5C379.181,418.093 379.348,399.76 380.5,381.5Z" style="fill:white;"/>
        </g>
        <g>
            <path d="M592.5,350.5C613.169,350.333 633.836,350.5 654.5,351C668.568,354.735 677.735,363.568 682,377.5C682.667,399.167 682.667,420.833 682,442.5C677.664,455.502 668.83,463.669 655.5,467C635.167,467.667 614.833,467.667 594.5,467C579.112,462.946 569.945,453.112 567,437.5C566.333,417.5 566.333,397.5 567,377.5C570.613,363.725 579.113,354.725 592.5,350.5ZM596.5,381.5L652.5,381.5L652.5,437.5C634.164,437.667 615.83,437.5 597.5,437C596.507,418.576 596.174,400.076 596.5,381.5Z" style="fill:white;"/>
        </g>
        <g>
            <path d="M513.5,415.5C521.55,415.729 527.383,419.395 531,426.5C531.667,446.833 531.667,467.167 531,487.5C526.95,509.884 513.783,523.384 491.5,528C470.167,528.667 448.833,528.667 427.5,528C418.405,523.39 415.571,516.223 419,506.5C421.087,502.698 424.254,500.198 428.5,499C446.5,498.667 464.5,498.333 482.5,498C490.469,496.034 495.969,491.201 499,483.5C499.333,465.167 499.667,446.833 500,428.5C502.442,421.888 506.942,417.555 513.5,415.5Z" style="fill:white;"/>
        </g>
        <g>
            <path d="M662.5,498.5C678.144,498.638 684.311,506.304 681,521.5C674.843,529.922 667.01,531.755 657.5,527C647.329,515.361 648.996,505.861 662.5,498.5Z" style="fill:white;"/>
        </g>
        <g>
            <path d="M360.5,498.5C374.945,496.782 381.778,503.115 381,517.5C376.263,528.284 368.429,531.451 357.5,527C349.99,520.874 348.49,513.374 353,504.5C355.114,501.879 357.614,499.879 360.5,498.5Z" style="fill:white;"/>
        </g>
        <g>
            <path d="M580.5,498.5C587.841,498.334 595.174,498.5 602.5,499C615.074,502.654 618.574,510.488 613,522.5C609.984,526.092 606.151,528.258 601.5,529C594.5,529.667 587.5,529.667 580.5,529C569.937,526.723 565.77,520.223 568,509.5C570.263,503.626 574.43,499.959 580.5,498.5Z" style="fill:white;"/>
        </g>
        <g>
            <path d="M600.5,561.5C624.169,561.333 647.836,561.5 671.5,562C680.177,566.19 683.343,573.024 681,582.5C678.96,587.876 675.127,591.043 669.5,592C648.5,592.333 627.5,592.667 606.5,593C602,594.833 598.833,598 597,602.5C596.667,624.5 596.333,646.5 596,668.5C592.167,676.122 586.001,678.955 577.5,677C572,675.5 568.5,672 567,666.5C566.333,643.5 566.333,620.5 567,597.5C570.824,578.514 581.991,566.514 600.5,561.5Z" style="fill:white;"/>
        </g>
        <g>
            <path d="M511.5,561.5C528.652,562.128 534.485,570.462 529,586.5C522.705,593.914 515.205,595.414 506.5,591C497.536,582.66 497.203,573.993 505.5,565C507.727,564.059 509.727,562.892 511.5,561.5Z" style="fill:white;"/>
        </g>
        <g>
            <path d="M375.5,561.5C396.836,561.333 418.169,561.5 439.5,562C453.432,566.265 462.265,575.432 466,589.5C466.667,609.833 466.667,630.167 466,650.5C461.726,664.441 452.56,673.274 438.5,677C417.833,677.667 397.167,677.667 376.5,677C362.123,672.624 353.29,663.124 350,648.5C349.333,628.5 349.333,608.5 350,588.5C353.613,574.725 362.113,565.725 375.5,561.5ZM380.5,591.5C399.076,591.174 417.576,591.507 436,592.5C436.825,611.074 436.659,629.574 435.5,648C416.926,648.825 398.426,648.659 380,647.5C379.181,628.76 379.347,610.093 380.5,591.5Z" style="fill:white;"/>
        </g>
        <g>
            <path d="M512.5,626.5C521.454,626.3 527.621,630.3 531,638.5C531.667,647.833 531.667,657.167 531,666.5C525.04,677.709 516.54,680.209 505.5,674C503.031,671.559 501.198,668.726 500,665.5C499.333,656.5 499.333,647.5 500,638.5C502.085,632.246 506.252,628.246 512.5,626.5Z" style="fill:white;"/>
        </g>
        <g>
            <path d="M662.5,646.5C678.856,646.019 685.023,653.686 681,669.5C672.401,679.713 663.401,680.046 654,670.5C649.218,659.742 652.051,651.742 662.5,646.5Z" style="fill:white;"/>
        </g>
    </g>
</svg>
