<svg width="522" height="515" viewBox="0 0 522 515" fill="none" xmlns="http://www.w3.org/2000/svg">
<path d="M180.233 28.9721C227.395 -8.96668 294.605 -8.96669 341.767 28.9721C357.139 41.3372 375.143 50.0079 394.395 54.316C453.461 67.5343 495.367 120.082 495.11 180.609C495.026 200.336 499.473 219.819 508.108 237.556C534.601 291.978 519.645 357.504 472.163 395.041C456.687 407.275 444.228 422.899 435.744 440.709C409.713 495.354 349.158 524.515 290.206 510.797C270.992 506.325 251.008 506.325 231.794 510.797C172.842 524.515 112.287 495.354 86.2563 440.709C77.7724 422.899 65.3126 407.275 49.8372 395.041C2.35507 357.504 -12.6007 291.978 13.8923 237.556C22.527 219.819 26.9738 200.336 26.8902 180.609C26.6335 120.082 68.5387 67.5343 127.606 54.316C146.857 50.0079 164.862 41.3372 180.233 28.9721Z" fill="#961A1A"/>
</svg>
